<?xml version="1.0" encoding="UTF-8" standalone="no"?>
<!DOCTYPE svg PUBLIC "-//W3C//DTD SVG 1.1//EN"
 "http://www.w3.org/Graphics/SVG/1.1/DTD/svg11.dtd">
<!-- Generated by graphviz version 2.43.0 (0)
 -->
<!-- Pages: 1 -->
<svg width="263pt" height="188pt"
 viewBox="0.00 0.00 262.99 188.00" xmlns="http://www.w3.org/2000/svg" xmlns:xlink="http://www.w3.org/1999/xlink">
<g id="graph0" class="graph" transform="scale(1 1) rotate(0) translate(4 184)">
<polygon fill="white" stroke="transparent" points="-4,4 -4,-184 258.99,-184 258.99,4 -4,4"/>
<!-- KITCHEN -->
<g id="node1" class="node">
<title>KITCHEN</title>
<ellipse fill="#b2dfee" stroke="#b2dfee" cx="129.59" cy="-162" rx="55.79" ry="18"/>
<text text-anchor="middle" x="129.59" y="-158.3" font-family="Times,serif" font-size="14.00">KITCHEN</text>
</g>
<!-- LIVING -->
<g id="node2" class="node">
<title>LIVING</title>
<ellipse fill="#b2dfee" stroke="#b2dfee" cx="67.59" cy="-90" rx="44.69" ry="18"/>
<text text-anchor="middle" x="67.59" y="-86.3" font-family="Times,serif" font-size="14.00">LIVING</text>
</g>
<!-- KITCHEN&#45;&#45;LIVING -->
<g id="edge1" class="edge">
<title>KITCHEN&#45;&#45;LIVING</title>
<path fill="none" stroke="black" d="M114.9,-144.41C105.02,-133.25 92.04,-118.6 82.18,-107.47"/>
</g>
<!-- BEDROOM -->
<g id="node3" class="node">
<title>BEDROOM</title>
<ellipse fill="#b2dfee" stroke="#b2dfee" cx="192.59" cy="-90" rx="62.29" ry="18"/>
<text text-anchor="middle" x="192.59" y="-86.3" font-family="Times,serif" font-size="14.00">BEDROOM</text>
</g>
<!-- KITCHEN&#45;&#45;BEDROOM -->
<g id="edge2" class="edge">
<title>KITCHEN&#45;&#45;BEDROOM</title>
<path fill="none" stroke="black" d="M144.52,-144.41C154.42,-133.41 167.37,-119.03 177.33,-107.96"/>
</g>
<!-- BATHROOM -->
<g id="node4" class="node">
<title>BATHROOM</title>
<ellipse fill="#b2dfee" stroke="#b2dfee" cx="67.59" cy="-18" rx="67.69" ry="18"/>
<text text-anchor="middle" x="67.59" y="-14.3" font-family="Times,serif" font-size="14.00">BATHROOM</text>
</g>
<!-- LIVING&#45;&#45;BATHROOM -->
<g id="edge3" class="edge">
<title>LIVING&#45;&#45;BATHROOM</title>
<path fill="none" stroke="black" d="M67.59,-71.7C67.59,-60.85 67.59,-46.92 67.59,-36.1"/>
</g>
</g>
</svg>
